Coordinates
version=1
nRows=13
nColumns=22
inDegrees=yes

Units are S.I. units (second, meters, Newtons, ...)
If the header above contains a line with 'inDegrees', this indicates whether rotational values are in degrees (yes) or radians (no).

endheader
time	pelvis_tilt	pelvis_list	pelvis_rotation	pelvis_tx	pelvis_ty	pelvis_tz	hip_flexion_r	hip_adduction_r	hip_rotation_r	knee_angle_r	ankle_angle_r	subtalar_angle_r	hip_flexion_l	hip_adduction_l	hip_rotation_l	knee_angle_l	ankle_angle_l	subtalar_angle_l	lumbar_extension	lumbar_bending	lumbar_rotation
      1.29000000	     -3.18805138	     -4.66931263	      1.01601293	     -1.13311048	      0.95387816	     -0.03697988	     10.12258113	      3.40858738	     -0.62488348	    -19.42589786	     11.95071428	     -0.49353645	     11.90663659	     -4.35201164	     -5.05152438	    -25.46536517	     15.13162780	     -4.63732782	     -5.54262542	      2.30959803	      0.23871779
      1.30000000	     -3.20177705	     -4.53423464	      1.10822454	     -1.13231164	      0.95361058	     -0.03854436	     10.48247860	      3.16923829	     -0.57760722	    -20.15578082	     12.13807773	     -0.32854710	     11.82039036	     -4.08803494	     -4.97601731	    -25.37667398	     15.13607467	     -4.65552487	     -5.57712272	      2.13330250	      0.14354253
      1.31000000	     -3.20120720	     -4.39306032	      1.18622114	     -1.13145914	      0.95334458	     -0.04004173	     10.90618429	      2.93058533	     -0.53377997	    -21.03052198	     12.30298453	     -0.20492631	     11.69901446	     -3.82524780	     -4.92193106	    -25.26498707	     15.17911373	     -4.67814896	     -5.62693682	      1.93898709	      0.04451988
      1.32000000	     -3.18327290	     -4.23913225	      1.24693138	     -1.13057743	      0.95308543	     -0.04149582	     11.39880459	      2.68380372	     -0.49677922	    -22.06134377	     12.44927112	     -0.12874904	     11.55253235	     -3.55316380	     -4.88667965	    -25.15334170	     15.23158470	     -4.69759654	     -5.70159810	      1.72953547	     -0.05916489
      1.33000000	     -3.16455871	     -4.08198003	      1.28918858	     -1.12967614	      0.95281518	     -0.04286502	     11.98700261	      2.44043291	     -0.47513195	    -23.26052562	     12.56802278	     -0.06739838	     11.40143829	     -3.28652150	     -4.87062916	    -25.04222148	     15.27921602	     -4.71919241	     -5.78429722	      1.51058306	     -0.16706547
      1.34000000	     -3.14992864	     -3.93725688	      1.30987471	     -1.12874543	      0.95253141	     -0.04414012	     12.67842063	      2.21540351	     -0.50034548	    -24.62590745	     12.62620801	     -0.01338948	     11.25357253	     -3.04303664	     -4.88193706	    -24.93807889	     15.34078310	     -4.75519262	     -5.86745661	      1.30229580	     -0.27075186
      1.35000000	     -3.07808453	     -3.77680047	      1.31891717	     -1.12777170	      0.95234093	     -0.04535103	     13.38553488	      1.98097304	     -0.54328492	    -26.12194633	     12.66156790	     -0.03417155	     11.03406447	     -2.78641829	     -4.89673202	    -24.82586061	     15.39906013	     -4.77417151	     -6.03003511	      1.07904075	     -0.39629530
      1.36000000	     -2.99879772	     -3.63443670	      1.30625723	     -1.12674895	      0.95216845	     -0.04645984	     14.16551298	      1.76955689	     -0.64068877	    -27.74160602	     12.62872898	     -0.08897141	     10.80478862	     -2.55883373	     -4.93407042	    -24.72018759	     15.46731529	     -4.80127692	     -6.20671925	      0.87697973	     -0.52289933
      1.37000000	     -2.89393184	     -3.51459708	      1.28205424	     -1.12566276	      0.95205454	     -0.04747413	     14.97752005	      1.58483658	     -0.79530691	    -29.44159400	     12.53015666	     -0.17711008	     10.54600819	     -2.36340360	     -4.98354333	    -24.61879955	     15.54939137	     -4.83222188	     -6.41948033	      0.70163973	     -0.66462191
      1.38000000	     -2.76769720	     -3.41937916	      1.24643740	     -1.12451175	      0.95199762	     -0.04838101	     15.81140728	      1.42912450	     -1.00526983	    -31.18484613	     12.38135859	     -0.29224465	     10.26651613	     -2.20164432	     -5.03196381	    -24.53101511	     15.63320987	     -4.86292890	     -6.66240968	      0.55304306	     -0.82135194
      1.39000000	     -2.64802983	     -3.36488616	      1.21043200	     -1.12330130	      0.95195747	     -0.04922118	     16.68045704	      1.31022024	     -1.29322499	    -32.92768921	     12.18424048	     -0.45582969	     10.00595308	     -2.09402177	     -5.10865729	    -24.46650600	     15.72581319	     -4.90574951	     -6.90230134	      0.45712338	     -1.00102941
      1.40000000	     -2.44675665	     -3.33743361	      1.17050158	     -1.12194946	      0.95210973	     -0.04999582	     17.44835967	      1.21561178	     -1.64380612	    -34.58766843	     11.92559444	     -0.54017804	      9.62102823	     -2.01953219	     -5.18734110	    -24.35128257	     15.86198780	     -4.93011412	     -7.23403053	      0.39897721	     -1.20596199
      1.41000000	     -2.30680361	     -3.30064968	      1.12938650	     -1.12063557	      0.95218374	     -0.05070121	     18.30171239	      1.10405751	     -2.04111408	    -36.19282624	     11.75166303	     -0.68087114	      9.32608690	     -1.93210315	     -5.22458159	    -24.27493607	     15.91464598	     -4.93626355	     -7.51243540	      0.32568428	     -1.39680517
